<svg id="Layer_1" data-name="Layer 1" xmlns="http://www.w3.org/2000/svg" viewBox="0 0 900 200"><defs><style>.cls-1{fill:#fff;}</style></defs><g id="Layer_1-2" data-name="Layer 1-2"><path class="cls-1" d="M344.5,49H324v98.33c-.18,2.28-1.24,3.32-3.54,3.33H297.58c-2.39,0-3.59-1.21-3.72-3.61V49H273.31v97.46c0,3.59-.63,4.23-4.15,4.23H245c-3.26,0-4.07-.81-4.07-4V22.69c0-3.05.92-4,4-4H355.77A21.37,21.37,0,0,1,377,39.83c-.13,35.48-.05,71-.05,106.45,0,3.33-1,4.32-4.4,4.32H349c-3.68,0-4.57-.84-4.57-4.48V51.23C344.5,50.56,344.5,49.86,344.5,49Z"/><path class="cls-1" d="M626.71,84.81v61.63c0,3-1.13,4.18-4.08,4.18H596.39c-2.91,0-4.13-1.27-4.13-4.22V104.67c0-3.45-1-4.51-4.43-4.51H551.14c-3.7,0-4.69,1-4.69,4.79v41.57c0,3.14-.93,4.1-4.07,4.1H516.14c-3.13,0-4-.87-4-4V22.75c0-3.12,1-4,4.14-4h26.09c3,0,4.1,1,4.1,4.1V63.09a16.53,16.53,0,0,0,.06,2.11,2.92,2.92,0,0,0,2.87,2.8,15.22,15.22,0,0,0,1.79.08h36.35c3.64,0,4.74-1.12,4.74-4.78V23.36c0-3.5,1.16-4.64,4.7-4.64h25.59c2.94,0,4.15,1.22,4.15,4.13Q626.72,53.84,626.71,84.81Z"/><path class="cls-1" d="M397.07,84.75V23c0-3.3.95-4.24,4.28-4.24h25.76c3.32,0,4.28.94,4.28,4.24v90.81c0,3.81,1,4.81,4.85,4.81h51c3.66,0,4.69,1,4.69,4.62v23.15c0,3.11-1.14,4.24-4.22,4.24H401.33c-3.38,0-4.24-.89-4.24-4.24Q397.08,115.57,397.07,84.75Z"/><path class="cls-1" d="M249.22,165.85H246V181h-5c0-.6-.08-1.13-.08-1.65v-17c0-1.29.25-1.83,1.68-1.8,5.26.07,10.53,0,15.8,0,2.8,0,4.07,1.32,4.07,4.11v14.83c0,1.11-.31,1.52-1.47,1.52-4.36-.12-3.63.62-3.67-3.54-.05-3.85,0-7.7,0-11.69h-3.27v13.85c0,.95-.28,1.39-1.31,1.37-4.08-.07-3.49.44-3.52-3.41S249.22,169.92,249.22,165.85Z"/><path class="cls-1" d="M279,174.87c-2.11,0-4-.06-5.78,0a1.55,1.55,0,0,0-1,1.06,32,32,0,0,0,0,3.92c0,.89-.3,1.26-1.23,1.25-4.89-.11-3.89.64-4-3.73-.06-4.18,0-8.37,0-12.54,0-2.89,1.3-4.18,4.19-4.2s6,0,9,0c2.67,0,4,1.39,4,4v14.83c0,1.17-.33,1.63-1.58,1.63-3.62,0-3.62.05-3.63-3.59C279,176.72,279,175.89,279,174.87Zm-6.73-4.57h6.64v-4.83h-6.61Z"/><path class="cls-1" d="M519.47,180.81a2.7,2.7,0,0,1-.4.25c-4.82.51-4.82.51-4.82-4.25V164.93c0-2.87,1.31-4.23,4.14-4.26h9c2.82,0,4.11,1.3,4.11,4.08V179.4c0,1.35-.41,1.79-1.76,1.75-4-.13-3.38.53-3.44-3.46,0-3.24.35-2.81-2.9-2.82-3.91,0-3.91,0-3.91,3.91Zm.15-15.36v4.85h6.55v-4.85Z"/><path class="cls-1" d="M402.74,174.87c0,1.68-.07,3.19,0,4.69.07,1.18-.27,1.61-1.52,1.6-3.71,0-3.71,0-3.71-3.69V165.24c0-3.31,1.26-4.57,4.52-4.57h8.31c3.18,0,4.36,1.19,4.36,4.31v14.51c0,1.3-.35,1.71-1.65,1.66-4.09-.12-3.5.55-3.55-3.54,0-3.14.35-2.71-2.81-2.74C405.48,174.85,404.25,174.87,402.74,174.87Zm.09-4.57h6.58v-4.83h-6.58Z"/><path class="cls-1" d="M307.1,170.89v-6.34c0-2.38,1.31-3.81,3.68-3.86,3.26-.08,6.53-.07,9.76,0a3.48,3.48,0,0,1,3.73,3.81q.06,6.42,0,12.85c0,2.55-1.3,3.77-3.84,3.81h-9.59c-2.43,0-3.71-1.28-3.74-3.72C307,175.24,307.1,173.06,307.1,170.89ZM319,176.14V165.92h-6.6v10.22Z"/><path class="cls-1" d="M334,175.2V180c0,.8-.28,1.12-1.14,1.18-4,.25-4,.28-4-3.67V162.35c0-1.26.36-1.73,1.66-1.71,3.81.07,7.61,0,11.42,0,2.79,0,4.09,1.34,4.1,4.1,0,2,0,4,0,6s-.38,3.54-2.47,4.41l3.32,5.87c-2,0-3.69.05-5.37,0-.33,0-.65-.52-.88-.87-.57-.92-1.07-1.88-1.63-2.81C337.42,174.71,337.42,174.71,334,175.2Zm6.71-4.86v-4.75h-6.74v4.75Z"/><path class="cls-1" d="M588,170.9v-8.8c0-1,.33-1.47,1.4-1.46,4,0,8,0,12.06,0,2.4,0,3.71,1.42,3.72,3.81v15.14c0,1.14-.38,1.52-1.53,1.52-4.46-.11-3.6.57-3.66-3.52-.05-3.47-.06-6.94,0-10.43,0-1.21-.48-1.52-1.52-1.45a33.33,33.33,0,0,1-3.74,0c-1.2-.07-1.64.37-1.61,1.59.06,3.95,0,7.92,0,11.88,0,1.45-.33,2-1.87,2-3.29-.12-3.29,0-3.29-3.27Q587.95,174.4,588,170.9Z"/><path class="cls-1" d="M419.25,171v-6.35c0-2.41,1.3-3.81,3.64-3.89,3.69-.07,7.38,0,11.08,0,1,0,1.34.43,1.31,1.39-.06,4.41.48,3.65-3.54,3.71-2,0-4,0-6,0-1,0-1.35.37-1.33,1.34V175c0,.87.27,1.31,1.21,1.31H430c.92,0,1.26-.42,1.25-1.29a27.44,27.44,0,0,1,.05-3.74c.06-.43.71-.81,1.11-1.18.06-.06.21,0,.32,0,4.26,0,3.65-.56,3.7,3.55,0,1.3.05,2.6,0,3.91-.12,2.49-1.34,3.66-3.8,3.67H423c-2.52,0-3.74-1.27-3.76-3.8C419.23,175.16,419.25,173.05,419.25,171Z"/><path class="cls-1" d="M609.65,171v-6.53a3.36,3.36,0,0,1,3.61-3.73c3.69-.08,7.39,0,11.08,0,1,0,1.35.42,1.34,1.39-.07,4.47.47,3.65-3.53,3.72-2,0-3.91.05-5.86,0-1.09,0-1.61.28-1.59,1.45,0,2.55,0,5.11,0,7.66,0,.94.35,1.39,1.36,1.35q2.12-.08,4.23,0c1,0,1.36-.42,1.34-1.35,0-1.2,0-2.4,0-3.59,0-.42.33-1.14.54-1.17a25.39,25.39,0,0,1,3.9,0c.23,0,.57.77.58,1.12q.08,3.35,0,6.68a3.08,3.08,0,0,1-3,3.21h-.23c-3.55.07-7.09.07-10.6,0a3.12,3.12,0,0,1-3.26-3v-.33C609.61,175.54,609.65,173.25,609.65,171Z"/><path class="cls-1" d="M492.55,170.88v-8.81c0-1,.35-1.44,1.41-1.43,4.63.09,3.76-.5,3.81,3.59s0,4.13,4.2,4.13c2.59,0,2.59,0,2.59-2.56,0-1.3,0-2.6,0-3.9,0-.4.37-1.1.62-1.12a23,23,0,0,1,3.89,0c.23,0,.58.76.58,1.14,0,6,0,11.94,0,17.91,0,1-.42,1.3-1.37,1.29-4.5-.09-3.73.57-3.81-3.61s0-4.14-4.23-4.14h-1.15c-1-.11-1.47.28-1.43,1.37.06,1.68,0,3.37,0,5,0,1-.3,1.36-1.31,1.33-4.82-.12-3.81.71-3.92-3.75C492.51,175.22,492.55,173.05,492.55,170.88Z"/><path class="cls-1" d="M467.7,165.5V169h7c.64,0,1.75.2,1.81.49a8.23,8.23,0,0,1,0,3.05c0,.23-.91.42-1.4.43-2.38,0-4.77,0-7.29,0v3.26c.42,0,.88.11,1.35.11H475c3.24,0,3.69.53,3,3.81a1.43,1.43,0,0,1-1,.9q-6.75.09-13.52,0c-.37,0-1-.76-1.05-1.16-.05-5.95-.05-12-.05-17.91,0-1,.49-1.34,1.42-1.33h12.87c1.07,0,1.42.45,1.41,1.46-.05,4.18.32,3.31-3.18,3.38C472.55,165.53,470.22,165.5,467.7,165.5Z"/><path class="cls-1" d="M457.84,170v7.5c0,2.51-1.24,3.67-3.73,3.68H444.5c-2.49,0-3.76-1.21-3.81-3.67V162.15c0-1.15.42-1.52,1.52-1.52,4.49.09,3.7-.51,3.76,3.65,0,3.47,0,6.95,0,10.43,0,1.13.32,1.59,1.47,1.53a19.53,19.53,0,0,1,3.42,0c1.41.13,1.91-.36,1.87-1.82-.08-4,0-7.93-.05-11.89,0-1.42.42-1.92,1.86-1.88,3.81.11,3.27-.38,3.32,3.29C457.87,165.94,457.84,167.92,457.84,170Z"/><path class="cls-1" d="M382.7,165.5V169c2.51,0,4.94.1,7.35,0,1.66-.09,1.52.87,1.52,2s.23,2.2-1.52,2.11c-2.38-.12-4.77,0-7.29,0v3.39H390c3,0,3.8,1.15,2.94,4a1.37,1.37,0,0,1-1,.7c-4.45.05-8.91,0-13.37,0-.88,0-1.11-.4-1.11-1.19V162.07c0-1,.39-1.36,1.35-1.35h12.88c1,0,1.32.36,1.37,1.33.19,3.51.22,3.51-3.2,3.51Z"/><path class="cls-1" d="M564.18,172.88c-2.24,1.58-3.24,3.42-3,6,.22,2.19,0,2.23-2.15,2.2-3.31,0-2.93.51-2.93-2.93V162.54c0-1.36.27-2,1.79-1.91,3.93.14,3.32-.51,3.38,3.36v5.29l.39.11c1.77-2,3.81-3.91,5.22-6.17,2-3.17,4.8-2.66,8.1-2.39l-7.29,8.61,7.06,11.64c-2.07,0-3.73.08-5.38-.05-.44,0-1-.63-1.23-1.09C566.82,177.68,565.56,175.35,564.18,172.88Z"/><path class="cls-1" d="M535.91,171v-6.53a3.47,3.47,0,0,1,3.62-3.74c3.52-.07,7.05,0,10.58,0,1.09,0,1.4.49,1.38,1.53,0,4.35.37,3.54-3.46,3.61-1.9,0-3.81,0-5.7,0-1,0-1.36.38-1.35,1.34,0,2.55,0,5.1,0,7.65,0,1.18.5,1.49,1.58,1.47,2.49-.05,5,0,7.5,0,1,0,1.47.32,1.46,1.39-.06,4.33.32,3.47-3.38,3.53-2.87.05-5.74,0-8.62,0a3.23,3.23,0,0,1-3.59-3.5C535.89,175.47,535.92,173.17,535.91,171Z"/><path class="cls-1" d="M302.63,170v7.32c0,2.59-1.27,3.81-3.81,3.81h-8.15c-2.22,0-3.52-1.11-3.67-3.29a57.47,57.47,0,0,1,0-5.87c0-.34.36-.95.59-1a34.2,34.2,0,0,1,4.05,0c.18,0,.4.43.49.71a4,4,0,0,1,0,1c0,3.71.58,4.19,4.35,3.45.4-.08.9-1,.92-1.49.07-4,.1-7.92,0-11.88,0-1.59.38-2.2,2.08-2.14,3.49.14,3.11-.28,3.12,3.19C302.63,165.87,302.63,167.92,302.63,170Z"/><path class="cls-1" d="M360.93,170.83c0-2.88,0-5.75,0-8.63,0-1.06.24-1.58,1.44-1.52,4.57.1,3.67-.49,3.72,3.66q.07,5.22,0,10.41c0,1.14.37,1.52,1.52,1.52,1.9-.06,3.81,0,5.7,0,1,0,1.34.37,1.32,1.34-.07,4.39.47,3.52-3.45,3.59-2.87.05-5.75,0-8.62,0-1.19,0-1.63-.3-1.6-1.52C361,176.68,360.93,173.75,360.93,170.83Z"/><path class="cls-1" d="M578.3,170.88V162.1c0-1,.28-1.47,1.38-1.45,4.49.09,3.75-.5,3.81,3.62,0,5,0,10.09,0,15.14,0,1.36-.42,1.77-1.77,1.74-3.41-.05-3.41,0-3.41-3.43C578.3,175.44,578.3,173.16,578.3,170.88Z"/></g></svg>