<?xml version="1.0" encoding="utf-8"?>
<!-- Generator: Adobe Illustrator 25.4.1, SVG Export Plug-In . SVG Version: 6.00 Build 0)  -->
<svg version="1.1"
	 id="svg29" xmlns:cc="http://creativecommons.org/ns#" xmlns:dc="http://purl.org/dc/elements/1.1/" xmlns:rdf="http://www.w3.org/1999/02/22-rdf-syntax-ns#" xmlns:svg="http://www.w3.org/2000/svg"
	 xmlns="http://www.w3.org/2000/svg" xmlns:xlink="http://www.w3.org/1999/xlink" x="0px" y="0px" viewBox="0 0 334.4 92"
	 style="enable-background:new 0 0 334.4 92;" xml:space="preserve">
<style type="text/css">
	.st0{clip-path:url(#SVGID_00000020381335516628976040000006925586221252581272_);}
	.st1{fill:#FFFFFF;}
</style>
<g id="g37" transform="matrix(1.3333333,0,0,-1.3333333,0,91.9916)">
	<g id="g39">
		<g>
			<defs>
				<rect id="SVGID_1_" x="-41.8" y="-11.5" width="334.4" height="92"/>
			</defs>
			<clipPath id="SVGID_00000142141396569840201740000009994724870884085944_">
				<use xlink:href="#SVGID_1_"  style="overflow:visible;"/>
			</clipPath>
			<g id="g41" style="clip-path:url(#SVGID_00000142141396569840201740000009994724870884085944_);">
				<g id="g47" transform="translate(98.636,67.6903)">
					<path id="path49" class="st1" d="M0,0c0,0.3,0,0.4,0.4,0.4c0.5,0,2.2-0.2,6.2-0.2c4.3,0,6.6,0.2,7,0.2c0.5,0,0.5-0.2,0.5-0.4
						v-1.2c0-0.3-0.1-0.5-0.4-0.5h-2.5C9.8-1.7,9.1-2.1,9.1-3c0-0.4,0.1-1,0.2-1.8c0.3-1.9,2.2-8.1,3.1-11c0.6-2,3.6-10.9,4.7-14.1
						h0.1c1.1,2.4,5.1,13.2,5.5,14.3c0.5,1.4,2.4,7.4,3.2,9.7c0.4,1.3,0.7,2.2,0.7,3c0,0.6-0.4,1.2-1.6,1.2h-1.3
						c-0.2,0-0.3,0.2-0.3,0.5V0c0,0.3,0.1,0.4,0.3,0.4c0.5,0,2.8-0.2,6-0.2c3.7,0,5,0.2,5.5,0.2c0.3,0,0.4-0.1,0.4-0.4v-1.3
						c0-0.2,0-0.4-0.4-0.4h-1.4c-1.7,0-2.7-0.8-3.6-2C28.9-5.4,24.8-16,24-18.2c-0.6-1.7-7.2-18.2-7.5-18.8
						c-0.2-0.4-0.5-0.7-0.7-0.7c-0.4,0-0.6,0.5-0.9,1.2c-1.6,4.8-5.8,16.6-6.4,18.5L8-16.2C6.7-12.5,4.3-4.9,3.7-3.4
						c-0.5,1.2-1,1.7-2.1,1.7H0.3C0-1.7,0-1.5,0-1.3V0z"/>
				</g>
				<g id="g51" transform="translate(130.6678,46.2213)">
					<path id="path53" class="st1" d="M0,0c0,1.8-0.3,2.7-2.9,3.1c-0.4,0.1-0.5,0.2-0.5,0.4V4c0,0.2,0.1,0.3,0.4,0.4
						c1.6,0.6,3.6,1.5,5.5,2.5c0.4,0.2,0.7,0.3,1,0.3c0.3,0,0.3-0.3,0.3-0.6C3.7,5.7,3.7,2.4,3.7-1.9v-5.7c0-2,0-3.9,0-4.5
						c0.1-1,0.3-1.4,0.8-1.4h2.3c0.4,0,0.5-0.2,0.5-0.5v-0.9c0-0.4-0.1-0.5-0.5-0.5c-0.4,0-2.8,0.2-4.9,0.2c-3,0-5-0.2-5.5-0.2
						c-0.3,0-0.4,0.1-0.4,0.4v1c0,0.3,0.2,0.4,0.5,0.4h2.5c0.6,0,0.8,0.2,0.8,1c0,1.6,0,3.2,0,4.7L0,0z"/>
				</g>
				<g id="g55" transform="translate(129.5278,58.3736)">
					<path id="path57" class="st1" d="M0,0c0,1.3,1.1,2.7,3.1,2.7c1.8,0,2.7-1.4,2.7-2.5c0-1.3-0.9-2.9-3-2.9C1.7-2.7,0-1.7,0,0"/>
				</g>
				<g id="g59" transform="translate(216.8034,46.2213)">
					<path id="path61" class="st1" d="M0,0c0,1.8-0.3,2.7-2.9,3.1c-0.4,0.1-0.5,0.2-0.5,0.4V4c0,0.2,0.1,0.3,0.4,0.4
						c1.6,0.6,3.6,1.5,5.5,2.5c0.4,0.2,0.7,0.3,1,0.3c0.3,0,0.3-0.3,0.3-0.6C3.7,5.7,3.7,2.4,3.7-1.9v-5.7c0-2,0-3.9,0-4.5
						c0.1-1,0.3-1.4,0.8-1.4h2.4c0.4,0,0.5-0.2,0.5-0.5v-0.9c0-0.4-0.1-0.5-0.5-0.5c-0.4,0-2.8,0.2-4.9,0.2c-3,0-5-0.2-5.5-0.2
						c-0.3,0-0.4,0.1-0.4,0.4v1c0,0.3,0.2,0.4,0.5,0.4h2.5c0.6,0,0.8,0.2,0.8,1C0-10.8,0-9.2,0-7.6L0,0z"/>
				</g>
				<g id="g63" transform="translate(215.6659,58.3736)">
					<path id="path65" class="st1" d="M0,0c0,1.3,1.1,2.7,3.1,2.7c1.8,0,2.7-1.4,2.7-2.5c0-1.3-0.9-2.9-3-2.9C1.7-2.7,0-1.7,0,0"/>
				</g>
				<g id="g67" transform="translate(145.6819,37.5922)">
					<path id="path69" class="st1" d="M0,0c0-3.9,1.7-4.6,2.7-4.6c1.2,0,2.7,0.2,3.4,0.7C6.3-3.7,6.5-3.8,6.6-4l0.3-0.5
						C7-4.7,6.9-4.9,6.8-5C6.3-5.6,4.2-7.1,1.1-7.1c-2.5,0-5,2.4-5,4.4c0,2.1,0.2,6.7,0.2,7.4v1.1c0,0.9,0,4.4,0.1,6.6h-3.1
						c-0.5,0-0.8,0.2-0.8,0.6c0,0.4,0.3,0.6,0.9,0.9c1.2,0.7,5.2,4.8,5.8,6.6c0.1,0.4,0.4,0.5,0.7,0.5c0.4,0,0.5-0.4,0.5-0.8
						l-0.3-5.1h7.1c0.3,0,0.5-0.3,0.4-0.5l-0.5-1.8c-0.1-0.3-0.2-0.4-0.5-0.4l-6.6,0C0,10.1,0,7.6,0,5.2V0z"/>
				</g>
				<g id="g71" transform="translate(158.1915,44.9234)">
					<path id="path73" class="st1" d="M0,0c-0.1-0.5-0.2-1.3-0.2-2.5c0-5.1,3.2-8.9,7.3-8.9c3.1,0,5.3,1.8,6.2,3.5
						c0.1,0.2,0.3,0.3,0.5,0.3L14.4-8c0.2-0.1,0.3-0.2,0-0.8c-0.9-2.1-3.6-5.7-8.1-5.7c-2.9,0-6.1,0.9-8,3.7C-3.5-8.1-4-6.2-4-2.5
						c0,2,0.5,5.5,3.2,8.3C1.4,8,4,8.5,6.5,8.5c5.9,0,7.5-5.6,7.5-7.6C14,0.1,13.4,0,12.6,0L0,0z M8.1,1.6c1,0,1.4,0.3,1.4,0.7
						c0,1.2-0.6,4.6-3.9,4.6c-2.2,0-4.4-1.5-5.4-5.4L8.1,1.6z"/>
				</g>
				<g id="g75" transform="translate(178.0025,44.925)">
					<path id="path77" class="st1" d="M0,0c0,2.7-0.4,3.2-1.8,4l-1,0.5c-0.3,0.1-0.4,0.2-0.4,0.4v0.3c0,0.2,0.1,0.3,0.4,0.5l5.1,2.7
						C2.6,8.4,2.8,8.5,3,8.5c0.3,0,0.4-0.3,0.4-0.6l0.3-3.6h0.2c1.5,2.4,3.9,4.5,6.1,4.5c1.7,0,2.6-1.1,2.6-2.3
						C12.5,5,11.3,4,10.4,4C9.8,4,9.3,4.2,8.9,4.4c-0.4,0.3-1,0.4-1.7,0.4c-0.8,0-2.1-0.5-3-2.2C3.9,2,3.7,1.1,3.7,0.9V-10
						c0-1.6,0.4-2.1,1.4-2.1h2.4c0.3,0,0.4-0.2,0.4-0.5v-0.9c0-0.3-0.1-0.5-0.3-0.5c-0.3,0-2.7,0.2-5.4,0.2C-1-13.8-3.1-14-3.4-14
						c-0.2,0-0.3,0.1-0.3,0.5v0.9c0,0.4,0.1,0.5,0.6,0.5h2c0.8,0,1.1,0.3,1.1,1c0,1.7,0,3.5,0,6.2V0z"/>
				</g>
				<g id="g79" transform="translate(192.6061,59.1196)">
					<path id="path81" class="st1" d="M0,0c0,3.5-0.6,4.2-2.4,4.8L-2.9,5c-0.6,0.2-0.7,0.3-0.7,0.4v0.4c0,0.2,0.1,0.3,0.4,0.4
						c1.5,0.7,4.1,2,5.4,2.9C2.6,9.4,3,9.6,3.3,9.6c0.4,0,0.5-0.3,0.4-0.9c-0.1-0.4,0-6.3,0-11v-6c1.6,1.6,4.5,2.6,7,2.6
						c4.5,0,9.3-3.7,9.3-11.1c0-6.1-4.8-11.8-10.6-11.8c-2.9,0-4.9,0.6-6,1.4l-2-1.1c-0.2-0.2-0.4-0.2-0.7-0.2l-0.6,0.2
						c-0.2,0-0.3,0.2-0.2,0.4C0-27.3,0-23,0-19.2L0,0z M3.7-16.8c0-4.3,0.2-5.9,0.8-7.5C5-25.6,7.1-27,9.3-27c3.1,0,6.8,2.1,6.8,8.9
						c0,5-2.6,9.8-7.6,9.8c-1.9,0-3.7-0.7-4.9-1.9L3.7-16.8z"/>
				</g>
				<g id="g83" transform="translate(4.5511,63.6237)">
					<path id="path85" class="st1" d="M0,0c0,1.8-0.4,2.6-1.8,2.6h-2.4c-0.3,0-0.4,0.1-0.4,0.5v1.2c0,0.3,0.1,0.4,0.5,0.4
						c0.5,0,3-0.2,8-0.2c4.3,0,6.8,0.2,7.4,0.2c0.3,0,0.4-0.1,0.4-0.4V3.1c0-0.3-0.1-0.4-0.4-0.4H9.2c-1.6,0-2.5-0.9-2.5-2
						c0-0.6-0.2-3.8-0.2-6.8v-6.5c0-2.6,0-6.4,0.2-8c0.2-2.4,0.6-4.8,1.8-6.5c1.8-2.4,4.5-3.3,7-3.3c2.4,0,5.3,0.9,6.9,2.5
						c2,2,3,5.1,3,8.9v9.5c0,4.2-0.4,8.8-0.6,10.1c-0.2,1.4-1,2.3-2.1,2.3h-1.9c-0.3,0-0.4,0.2-0.4,0.4v1.3c0,0.3,0.1,0.4,0.4,0.4
						c0.5,0,2.9-0.2,6.3-0.2c3.2,0,4.9,0.2,5.3,0.2c0.5,0,0.5-0.2,0.5-0.4V3.1c0-0.3-0.1-0.5-0.3-0.5h-1.9c-1.9,0-2.1-1.5-2.2-2
						c-0.1-0.6-0.1-8-0.1-8.7c0-0.7-0.1-9.9-0.3-12c-0.3-4.3-1.6-7.6-4.3-10.1c-2.2-2-5.5-3.3-9.4-3.3C12-33.5,9-33,7-32.2
						c-3,1.3-5.1,3.7-6.1,7.1C0.2-22.8,0-19.4,0-12.5V0z"/>
				</g>
				<g id="g87" transform="translate(38.9804,42.6825)">
					<path id="path89" class="st1" d="M0,0c0.2,0,0.3-0.1,0.3-0.4c0.1-1.7,0.5-3.7,2-6c1.5-2.5,4.2-3.8,6.8-3.8
						c2.8,0,6.7,1.8,6.7,6.2c0,4.8-2.2,6.4-7.7,8.5C6.5,5.1,3.1,6.6,0.6,8.9C-1.1,10.6-2,13.2-2,16.4c0,2.9,1.1,5.4,3.6,7.4
						C3.7,25.6,6,26.3,9,26.3c3.4,0,5.5-0.8,6.5-1.3c0.5-0.2,0.8-0.1,1.1,0.2l0.7,0.7c0.2,0.2,0.4,0.3,0.7,0.3
						c0.3,0,0.4-0.3,0.4-0.8c0-0.8,0.8-8.2,0.8-8.7c0-0.2-0.1-0.3-0.3-0.4L18.1,16c-0.2-0.1-0.4,0-0.5,0.3c-0.5,1.5-1.3,3.6-3.2,5.6
						c-1.3,1.5-3,2.2-5.4,2.2c-4.1,0-5.8-3.4-5.8-5.3c0-1.8,0.2-3.4,1.4-4.7c1.3-1.4,4.2-2.6,6.3-3.3c3-0.9,5.5-2,7.4-4.1
						c1.7-1.8,2.6-4,2.6-7.5c0-6.4-4.1-11.7-11-11.7c-4.2,0-6.7,0.9-8.8,2.5C0.6-9.6,0.3-9.4,0-9.4c-0.3,0-0.5-0.4-0.8-0.9
						c-0.3-0.5-0.5-0.6-0.9-0.6c-0.4,0-0.6,0.3-0.6,0.8c0.1,0.6,0.8,9.2,0.9,9.8C-1.4,0-1.3,0.1-1.1,0.1L0,0z"/>
				</g>
				<g id="g91" transform="translate(95.3261,39.5237)">
					<path id="path93" class="st1" d="M0,0c0.2-0.2,0.2-0.3,0.1-0.5C-3-5.1-8-9.4-15.3-9.4c-6.6,0-10.3,2-13.5,4.9
						c-3.8,3.5-5.6,9.6-5.6,14.2c0,5.2,1.7,10.1,5.3,14.1c2.8,3.1,7.2,5.6,13.4,5.6c4.8,0,8.6-1.5,10.4-2.5c0.7-0.4,0.9-0.4,1,0
						l0.4,1.4c0.1,0.3,0.2,0.3,0.8,0.3c0.6,0,0.7-0.1,0.7-0.8c0-0.9,1-9.4,1.2-10.9c0-0.3,0-0.5-0.2-0.5l-1-0.3
						c-0.3-0.1-0.4,0.1-0.6,0.5c-0.6,1.9-1.9,4.5-4,6.8c-2.3,2.2-5,3.9-9,3.9c-8.3,0-11.7-7.6-11.7-15.2c0-3.3,0.9-9.5,4.8-13.7
						c3.4-3.7,6.4-4.1,8.9-4.1c5.7,0,10.2,2.9,12.4,6.1C-1.2,0.8-1,0.9-0.9,0.8L0,0z"/>
				</g>
				<g id="g95" transform="translate(105.3703,5.1964)">
					<path id="path97" class="st1" d="M0,0c-0.2,0.2-0.3,0.2-0.4,0.2c-0.1,0-0.2-0.1-0.3-0.3c-0.1-0.2-0.2-0.2-0.3-0.2
						C-1-0.3-1.1-0.2-1.1,0C-1,0.4-0.9,2.5-0.8,3c0,0.1,0.1,0.1,0.1,0.1l0.2,0c0.1,0,0.1,0,0.1-0.1c0-0.5,0-1.1,0.6-2
						c0.5-0.8,1.4-1.2,2.3-1.2c1,0,2.2,0.6,2.2,2.1c0,1.7-1.2,2.4-2.5,2.8C1.8,4.9,0.6,5.4-0.1,6.1C-0.7,6.7-1,7.5-1,8.6
						c0,0.8,0.5,1.7,1,2.2c0.6,0.6,1.4,0.8,2.3,0.8c0.9,0,1.7-0.3,1.9-0.4c0.1-0.1,0.2-0.1,0.3,0l0.2,0.2c0.1,0.1,0.1,0.1,0.2,0.1
						c0.1,0,0.1-0.1,0.1-0.3c0-0.6,0.2-2.3,0.2-2.7c0-0.1,0-0.1-0.1-0.1L5.1,8.3c0,0-0.1,0-0.1,0.1c-0.1,0.5-0.3,1.1-1,1.9
						c-0.4,0.5-1,0.7-1.8,0.7c-1.5,0-2-1.1-2-2c0-0.5,0.1-1,0.5-1.5c0.5-0.5,1.4-0.9,1.9-1c1.1-0.4,2.1-0.7,2.7-1.4
						C5.7,4.6,6,3.9,6,2.8c0-2-1.2-3.7-3.4-3.7C1.5-0.9,0.7-0.5,0,0"/>
				</g>
				<g id="g99" transform="translate(113.584,8.6433)">
					<path id="path101" class="st1" d="M0,0c0-0.9,0.4-1.9,0.8-2.6c0.5-0.7,1.2-0.9,1.8-0.9c0.8,0,1.3,0.2,1.8,0.7c0,0,0.1,0,0.1,0
						l0.2-0.2c0.1-0.1,0.1-0.1,0-0.2C4.3-3.6,3.2-4.3,2.1-4.3c-0.9,0-1.8,0.2-2.6,1.2c-0.6,0.8-0.7,1.5-0.7,2.3c0,2,1.4,4,3.5,4
						c1.7,0,2.2-1,2.2-1.4c0-0.4-0.3-0.6-0.6-0.6c-0.4,0-0.7,0.2-0.9,0.7C2.7,2.6,2.3,2.6,2,2.6C1,2.6,0,1.7,0,0"/>
				</g>
				<g id="g103" transform="translate(120.0974,13.7394)">
					<path id="path105" class="st1" d="M0,0c0,1-0.2,1.2-0.8,1.4l-0.3,0.1c-0.1,0-0.1,0-0.1,0.1v0.2c0,0.1,0,0.1,0.2,0.2l1.7,0.9
						C0.9,2.9,1,3,1.1,3c0.1,0,0.2-0.1,0.1-0.4c0-0.3-0.1-3.7-0.1-4.5V-3h0.1C1.8-2.3,2.8-2,3.5-2c0.7,0,1.2-0.2,1.6-0.7
						c0.7-0.7,0.7-1.6,0.7-2.5v-1c0-0.9,0-2,0-2.3c0-0.2,0.3-0.3,0.6-0.3h0.3c0.1,0,0.2,0,0.2-0.2V-9c0-0.1,0-0.2-0.1-0.2
						c-0.1,0-0.6,0.1-1.6,0.1c-0.8,0-1.4-0.1-1.6-0.1C3.6-9.2,3.6-9.2,3.6-9v0.3c0,0.1,0,0.1,0.1,0.1h0.4c0.3,0,0.6,0,0.6,0.3
						c0,0.2,0,1.1,0,1.7v1.4c0,0.9-0.1,1.6-0.5,2.1C3.8-2.9,3.5-2.7,3.1-2.7C2.6-2.7,2-2.9,1.5-3.4C1.4-3.6,1.2-4,1.2-4.3v-3.7
						c0-0.5,0.1-0.7,0.4-0.7H2c0.1,0,0.2,0,0.2-0.1V-9c0-0.1,0-0.2-0.1-0.2C2-9.2,1.3-9.2,0.5-9.2c-0.8,0-1.5-0.1-1.6-0.1
						c-0.1,0-0.1,0.1-0.1,0.2v0.3c0,0.1,0.1,0.1,0.2,0.1h0.3c0.3,0,0.5,0.1,0.5,0.3C0-8,0-6.2,0-5.1V0z"/>
				</g>
				<g id="g107" transform="translate(133.6445,8.2403)">
					<path id="path109" class="st1" d="M0,0c0,1.9-1.3,3-2.2,3c-0.4,0-0.9-0.1-1.3-0.5c-0.6-0.7-0.9-1.4-0.9-2.6
						c0-0.9,0.1-1.6,0.6-2.4C-3.3-3-2.8-3.4-2.1-3.4C-0.8-3.4,0-1.8,0,0 M-4.8-2.7C-5.5-1.8-5.7-1.2-5.7,0c0,0.9,0.4,1.9,1.4,2.7
						C-3.4,3.4-2.6,3.5-2,3.5c0.9,0,1.8-0.5,2.3-1C1,1.8,1.4,0.9,1.4-0.2c0-1.8-1.6-3.7-3.7-3.7C-3.1-3.9-4.1-3.5-4.8-2.7"/>
				</g>
				<g id="g111" transform="translate(141.8738,8.2403)">
					<path id="path113" class="st1" d="M0,0c0,1.9-1.3,3-2.2,3c-0.4,0-0.9-0.1-1.3-0.5c-0.6-0.7-0.9-1.4-0.9-2.6
						c0-0.9,0.1-1.6,0.6-2.4C-3.3-3-2.8-3.4-2.1-3.4C-0.8-3.4,0-1.8,0,0 M-4.8-2.7C-5.5-1.8-5.7-1.2-5.7,0c0,0.9,0.4,1.9,1.4,2.7
						C-3.4,3.4-2.6,3.5-2,3.5c0.9,0,1.8-0.5,2.3-1C1,1.8,1.4,0.9,1.4-0.2c0-1.8-1.6-3.7-3.7-3.7C-3.1-3.9-4.1-3.5-4.8-2.7"/>
				</g>
				<g id="g115" transform="translate(146.6159,9.5854)">
					<path id="path117" class="st1" d="M0,0c0-0.9,0-3.4,0-3.9c0-0.3,0.1-0.5,0.4-0.5h0.7c0.1,0,0.2-0.1,0.2-0.2v-0.3
						c0-0.1,0-0.2-0.1-0.2C1.2-5.1,0.4-5-0.6-5c-1.1,0-1.7-0.1-1.9-0.1c-0.1,0-0.1,0.1-0.1,0.2v0.3c0,0.1,0,0.2,0.2,0.2h0.8
						c0.2,0,0.3,0.1,0.4,0.4c0,0.5,0,3.4,0,4.4v1.1c0,1.2,0,2.7,0,3.2c0,0.6-0.3,0.8-0.8,1l-0.3,0.1c-0.1,0-0.1,0.1-0.1,0.1v0.1
						C-2.5,6-2.4,6-2.3,6C-1.8,6.3-1,6.6-0.4,7c0.1,0.1,0.2,0.1,0.3,0.1c0.1,0,0.1-0.1,0.1-0.3C0,5.9,0,2.4,0,1.5V0z"/>
				</g>
				<g id="g119" transform="translate(157.867,8.2403)">
					<path id="path121" class="st1" d="M0,0c0,1.9-1.3,3-2.2,3c-0.4,0-0.9-0.1-1.3-0.5c-0.6-0.7-0.9-1.4-0.9-2.6
						c0-0.9,0.1-1.6,0.6-2.4C-3.3-3-2.8-3.4-2.1-3.4C-0.8-3.4,0-1.8,0,0 M-4.8-2.7C-5.5-1.8-5.7-1.2-5.7,0c0,0.9,0.4,1.9,1.4,2.7
						C-3.4,3.4-2.6,3.5-2,3.5c0.9,0,1.8-0.5,2.3-1C1,1.8,1.4,0.9,1.4-0.2c0-1.8-1.6-3.7-3.7-3.7C-3.1-3.9-4.1-3.5-4.8-2.7"/>
				</g>
				<g id="g123" transform="translate(161.6022,10.7795)">
					<path id="path125" class="st1" d="M0,0h-1.1c-0.1,0-0.1,0-0.1,0.2l0.1,0.5c0,0.1,0.1,0.1,0.2,0.1h1v0.3c0,1.7,0.5,2.8,1.1,3.5
						C2,5.6,2.9,6,3.8,6C4.6,6,5.3,5.7,5.3,5c0-0.4-0.4-0.7-0.7-0.7c-0.2,0-0.3,0-0.5,0.1C4,4.5,3.8,4.7,3.8,4.8
						C3.6,5,3.3,5.2,3,5.2C2.6,5.2,2.1,5,1.8,4.6C1.2,3.8,1.2,2.3,1.2,1.1V0.8h2c0.1,0,0.1-0.1,0.1-0.2L3.2,0.1C3.2,0,3.1,0,3,0H1.2
						v-1.5c0-2,0-3.5,0-3.7c0-0.3,0.1-0.4,0.4-0.4h0.9c0.2,0,0.2,0,0.2-0.1v-0.3c0-0.1,0-0.2-0.1-0.2c-0.1,0-0.7,0.1-2,0.1
						c-0.9,0-1.8-0.1-1.9-0.1c-0.1,0-0.1,0-0.1,0.1v0.4c0,0.1,0,0.1,0.2,0.1h0.8C-0.1-5.7,0-5.4,0-5.1v3.2L0,0z"/>
				</g>
				<g id="g127" transform="translate(173.0856,11.0155)">
					<path id="path129" class="st1" d="M0,0c0.1,0,1.9,0.1,2.1,0.1c0.5,0.1,0.6,0.2,0.8,0.7C2.9,1,3,1.3,3,1.7c0,0.1,0,0.1,0.1,0.1
						l0.4,0c0.1,0,0.1-0.1,0.1-0.1c0-0.3,0-1.7,0-1.9c0-0.6,0.1-1.4,0.1-1.7c0-0.1,0-0.1-0.1-0.1L3.2-2.2c-0.1,0-0.1,0-0.1,0.2
						c0,0.2-0.1,0.6-0.2,0.8C2.8-0.9,2.6-0.7,2.2-0.6C1.4-0.5,0.3-0.5,0-0.5v-1c0-0.9,0-2.5,0-2.9C0-5.3,0.5-5.7,1-5.8
						c0.3-0.1,0.8-0.1,1.2-0.1c0.3,0,1.1,0,1.5,0.1c0.3,0,1,0.2,1.4,0.6c0.2,0.2,1.1,1.4,1.4,1.8c0,0.1,0.1,0.2,0.2,0.1l0.3-0.2
						c0.1,0,0.1-0.1,0-0.2L6.1-6.2C6-6.4,5.9-6.5,5.7-6.5c-0.1,0-0.4,0-1.4,0c-1,0-2.6,0-5.2,0c-0.6,0-1.1,0-1.4,0
						c-0.3,0-0.6,0-0.7,0c-0.1,0-0.1,0-0.1,0.1v0.5c0,0.1,0,0.1,0.2,0.1h0.7c0.8,0,0.8,0.1,0.8,0.7v4v1.6c0,1.4,0,3.5,0,3.7
						c-0.1,0.5-0.2,0.7-0.8,0.7H-3c-0.1,0-0.1,0-0.1,0.1v0.5c0,0.1,0,0.1,0.1,0.1c0.4,0,0.9-0.1,2-0.1h0.7c1.6,0,3.3,0,4.9,0
						c0.3,0,0.6,0,0.7,0c0.1,0,0.1,0,0.1-0.1c0.1-0.2,0.8-2.5,0.8-2.7c0-0.1,0-0.1,0-0.2L6,2.4c0,0-0.1,0-0.1,0
						c0,0.1-1.3,1.7-1.7,1.9C3.8,4.6,3.4,4.8,2.9,4.9L0,4.9V0z"/>
				</g>
				<g id="g131" transform="translate(187.0849,5.4826)">
					<path id="path133" class="st1" d="M0,0c0-0.3,0.1-0.4,0.4-0.4h0.5c0.1,0,0.2-0.1,0.2-0.2v-0.3C1.1-0.9,1-1,0.9-1
						C0.8-1,0.3-0.9-0.6-0.9C-1.5-0.9-2-1-2.1-1c-0.1,0-0.1,0.1-0.1,0.2v0.3c0,0.1,0,0.2,0.2,0.2h0.5c0.2,0,0.3,0.1,0.3,0.4
						c0,0.4,0,1,0,1.4v2.2c0,0.7,0,1.2-0.5,1.5c-0.4,0.3-0.8,0.3-1.2,0.3c-0.3,0-0.8-0.1-1.3-0.7C-4.5,4.5-4.6,4-4.6,3.7V0.2
						c0-0.5,0-0.6,0.4-0.6h0.4c0.1,0,0.2-0.1,0.2-0.2v-0.3c0-0.1,0-0.2-0.1-0.2c-0.1,0-0.6,0.1-1.4,0.1C-6-0.9-6.5-1-6.6-1
						c-0.1,0-0.1,0.1-0.1,0.2v0.3c0,0.1,0,0.2,0.2,0.2h0.5c0.2,0,0.3,0.1,0.3,0.3v3.9c0,0.5-0.3,0.8-0.7,1L-6.6,5
						C-6.7,5-6.7,5.1-6.7,5.1v0.1c0,0.1,0.1,0.1,0.2,0.2l1.4,0.8C-5,6.3-4.9,6.3-4.9,6.3c0.1,0,0.1-0.1,0.1-0.2l0.1-1h0
						c0.5,0.6,1.4,1.2,2.3,1.2c0.5,0,1-0.1,1.4-0.4C-0.4,5.6,0,4.8,0,4.3V0z"/>
				</g>
				<g id="g135" transform="translate(193.4627,9.4342)">
					<path id="path137" class="st1" d="M0,0c0,0.7-0.1,1.2-0.4,1.5C-0.7,1.7-1,1.9-1.2,1.9c-0.4,0-0.8-0.1-1.2-0.5
						C-2.9,0.8-3,0.1-3-0.6C-3-1.1-2.8-1.7-2.5-2c0.3-0.3,0.6-0.4,1-0.4C-0.4-2.5,0-1.1,0,0 M1.5-7.2c0,1-0.7,1.7-2.4,1.6l-1.6-0.1
						C-3-5.8-3.8-6.4-3.8-7.3c0-0.4,0.3-0.9,0.6-1.2C-2.6-8.8-2-8.9-0.8-8.9C-0.2-8.9,1.6-8.5,1.5-7.2 M-3.9-8.9
						c-0.6,0.4-0.8,0.8-0.8,1.4c0,0.9,0.9,1.7,1.7,2v0.1c-0.7,0.2-1.1,0.7-1.1,1.2c0,0.8,0.9,1.4,1.5,1.6v0
						c-0.6,0.3-1.5,1.1-1.5,2.6c0,1.1,1,2.4,2.8,2.4c1.3,0,1.9-0.8,2.1-1C1.2,1.7,1.7,2,2.3,2c0.5,0,0.8-0.4,0.8-0.7
						c0-0.3-0.3-0.6-0.6-0.6C2.1,0.7,2,0.8,1.8,1C1.7,1,1.6,1.1,1.5,1.1C1.4,1.1,1.2,1.1,1,1c0.1-0.3,0.2-0.7,0.2-1.3
						c0-0.7-0.2-1.3-0.6-1.8C0.2-2.6-0.8-2.9-1.3-2.9c-0.4,0-0.6,0-0.8,0.1C-2.5-3-3-3.3-3-3.8c0-0.7,0.8-0.6,1.9-0.6
						C0.2-4.3,1.1-4.4,1.7-5c0.7-0.5,0.8-1.2,0.8-1.6c0-0.8-0.3-1.4-1.1-2.1C1-9,0-9.4-1.4-9.4C-2.2-9.4-3.1-9.4-3.9-8.9"/>
				</g>
				<g id="g139" transform="translate(197.4282,14.5971)">
					<path id="path141" class="st1" d="M0,0c0,0.4,0.3,0.9,1,0.9c0.6,0,0.9-0.5,0.9-0.8c0-0.4-0.3-0.9-1-0.9C0.5-0.9,0-0.5,0,0
						 M0.7-5.1c0,0.6-0.1,0.9-0.9,1c-0.1,0-0.1,0.1-0.1,0.1v0.2c0,0,0,0.1,0.1,0.1c0.5,0.2,1.2,0.5,1.8,0.8c0.1,0.1,0.2,0.1,0.3,0.1
						C2-2.8,2-2.9,2-3c0-0.3,0-1.3,0-2.7v-1.8c0-0.7,0-1.3,0-1.4C2-9.4,2-9.5,2.2-9.5H3c0.1,0,0.2-0.1,0.2-0.2v-0.3
						c0-0.1,0-0.2-0.1-0.2c-0.1,0-0.9,0.1-1.6,0.1c-1,0-1.6-0.1-1.8-0.1c-0.1,0-0.1,0-0.1,0.1v0.3c0,0.1,0.1,0.1,0.2,0.1h0.8
						c0.2,0,0.2,0.1,0.3,0.3c0,0.5,0,1,0,1.5L0.7-5.1z"/>
				</g>
				<g id="g143" transform="translate(208.2984,5.4826)">
					<path id="path145" class="st1" d="M0,0c0-0.3,0.1-0.4,0.4-0.4h0.5c0.1,0,0.2-0.1,0.2-0.2v-0.3C1.1-0.9,1-1,0.9-1
						C0.8-1,0.3-0.9-0.6-0.9C-1.5-0.9-2-1-2.1-1c-0.1,0-0.1,0.1-0.1,0.2v0.3c0,0.1,0,0.2,0.2,0.2h0.5c0.2,0,0.3,0.1,0.3,0.4
						c0,0.4,0,1,0,1.4v2.2c0,0.7,0,1.2-0.5,1.5c-0.4,0.3-0.8,0.3-1.2,0.3c-0.3,0-0.8-0.1-1.3-0.7C-4.5,4.5-4.6,4-4.6,3.7V0.2
						c0-0.5,0.1-0.6,0.4-0.6h0.4c0.1,0,0.2-0.1,0.2-0.2v-0.3c0-0.1,0-0.2-0.1-0.2c-0.1,0-0.6,0.1-1.4,0.1C-6-0.9-6.5-1-6.6-1
						c-0.1,0-0.1,0.1-0.1,0.2v0.3c0,0.1,0,0.2,0.2,0.2h0.5c0.2,0,0.3,0.1,0.3,0.3v3.9c0,0.5-0.3,0.8-0.7,1L-6.6,5
						C-6.7,5-6.7,5.1-6.7,5.1v0.1c0,0.1,0.1,0.1,0.1,0.2l1.4,0.8C-5,6.3-4.9,6.3-4.9,6.3c0.1,0,0.1-0.1,0.1-0.2l0.1-1h0
						c0.5,0.6,1.4,1.2,2.3,1.2c0.5,0,1-0.1,1.4-0.4C-0.4,5.6,0,4.8,0,4.3V0z"/>
				</g>
				<g id="g147" transform="translate(214.2145,9.5517)">
					<path id="path149" class="st1" d="M0,0c0.3,0,0.4,0.1,0.4,0.2c0,0.4-0.2,1.5-1.3,1.5c-0.7,0-1.4-0.5-1.7-1.7H0z M-2.6-0.5
						c0-0.2,0-0.4,0-0.8c0-1.6,1-2.9,2.3-2.9c1,0,1.7,0.6,2,1.1C1.7-3,1.8-3,1.8-3L2-3.1c0,0,0.1-0.1,0-0.3C1.7-4,0.9-5.2-0.6-5.2
						c-0.9,0-2,0.3-2.6,1.2c-0.6,0.9-0.7,1.5-0.7,2.7c0,0.7,0.2,1.8,1,2.7c0.7,0.7,1.5,0.9,2.4,0.9c1.9,0,2.4-1.8,2.4-2.5
						c0-0.2-0.2-0.3-0.5-0.3L-2.6-0.5z"/>
				</g>
				<g id="g151" transform="translate(221.2533,9.5517)">
					<path id="path153" class="st1" d="M0,0c0.3,0,0.4,0.1,0.4,0.2c0,0.4-0.2,1.5-1.3,1.5c-0.7,0-1.4-0.5-1.7-1.7L0,0z M-2.6-0.5
						c0-0.2,0-0.4,0-0.8c0-1.6,1-2.9,2.3-2.9c1,0,1.7,0.6,2,1.1C1.7-3,1.8-3,1.8-3L2-3.1c0,0,0.1-0.1,0-0.3C1.7-4,0.9-5.2-0.6-5.2
						c-0.9,0-2,0.3-2.6,1.2c-0.6,0.9-0.7,1.5-0.7,2.7c0,0.7,0.2,1.8,1,2.7c0.7,0.7,1.5,0.9,2.4,0.9c1.9,0,2.4-1.8,2.4-2.5
						c0-0.2-0.2-0.3-0.5-0.3L-2.6-0.5z"/>
				</g>
				<g id="g155" transform="translate(225.3684,9.0479)">
					<path id="path157" class="st1" d="M0,0c0,0.9-0.1,1-0.6,1.3l-0.3,0.2C-1,1.5-1,1.5-1,1.6v0.1c0,0.1,0,0.1,0.1,0.1l1.6,0.9
						C0.8,2.7,0.9,2.7,1,2.7c0.1,0,0.1-0.1,0.1-0.2l0.1-1.2h0.1c0.5,0.8,1.3,1.5,2,1.5C3.8,2.8,4,2.5,4,2.1c0-0.5-0.4-0.8-0.7-0.8
						C3.2,1.3,3,1.3,2.9,1.4C2.7,1.5,2.5,1.5,2.3,1.5c-0.3,0-0.7-0.2-1-0.7C1.3,0.7,1.2,0.4,1.2,0.3v-3.5c0-0.5,0.1-0.7,0.5-0.7h0.8
						c0.1,0,0.1-0.1,0.1-0.2v-0.3c0-0.1,0-0.2-0.1-0.2c-0.1,0-0.9,0.1-1.8,0.1c-1,0-1.7-0.1-1.8-0.1c-0.1,0-0.1,0-0.1,0.2v0.3
						c0,0.1,0,0.2,0.2,0.2h0.6C-0.1-3.9,0-3.8,0-3.6c0,0.6,0,1.1,0,2V0z"/>
				</g>
				<g id="g159" transform="translate(230.5062,14.5971)">
					<path id="path161" class="st1" d="M0,0c0,0.4,0.3,0.9,1,0.9c0.6,0,0.9-0.5,0.9-0.8c0-0.4-0.3-0.9-1-0.9C0.5-0.9,0-0.5,0,0
						 M0.7-5.1c0,0.6-0.1,0.9-0.9,1c-0.1,0-0.1,0.1-0.1,0.1v0.2c0,0,0,0.1,0.1,0.1c0.5,0.2,1.2,0.5,1.8,0.8c0.1,0.1,0.2,0.1,0.3,0.1
						C2-2.8,2-2.9,2-3c0-0.3,0-1.3,0-2.7v-1.8c0-0.7,0-1.3,0-1.4C2-9.4,2-9.5,2.2-9.5H3c0.1,0,0.2-0.1,0.2-0.2v-0.3
						c0-0.1,0-0.2-0.1-0.2c-0.1,0-0.9,0.1-1.6,0.1c-1,0-1.6-0.1-1.8-0.1c-0.1,0-0.1,0-0.1,0.1v0.3c0,0.1,0.1,0.1,0.2,0.1h0.8
						c0.2,0,0.2,0.1,0.3,0.3c0,0.5,0,1,0,1.5L0.7-5.1z"/>
				</g>
				<g id="g163" transform="translate(241.3782,5.4826)">
					<path id="path165" class="st1" d="M0,0c0-0.3,0.1-0.4,0.4-0.4h0.5c0.1,0,0.2-0.1,0.2-0.2v-0.3C1.1-0.9,1-1,0.9-1
						C0.8-1,0.3-0.9-0.6-0.9C-1.5-0.9-2-1-2.1-1c-0.1,0-0.1,0.1-0.1,0.2v0.3c0,0.1,0,0.2,0.2,0.2h0.5c0.2,0,0.3,0.1,0.3,0.4
						c0,0.4,0,1,0,1.4v2.2c0,0.7,0,1.2-0.5,1.5c-0.4,0.3-0.8,0.3-1.2,0.3c-0.3,0-0.8-0.1-1.3-0.7C-4.5,4.5-4.6,4-4.6,3.7V0.2
						c0-0.5,0-0.6,0.4-0.6h0.4c0.1,0,0.2-0.1,0.2-0.2v-0.3c0-0.1,0-0.2-0.1-0.2c-0.1,0-0.6,0.1-1.4,0.1C-6-0.9-6.5-1-6.6-1
						c-0.1,0-0.1,0.1-0.1,0.2v0.3c0,0.1,0,0.2,0.2,0.2h0.5c0.2,0,0.3,0.1,0.3,0.3v3.9c0,0.5-0.3,0.8-0.7,1L-6.6,5
						C-6.7,5-6.7,5.1-6.7,5.1v0.1c0,0.1,0.1,0.1,0.1,0.2l1.4,0.8C-5,6.3-4.9,6.3-4.9,6.3c0.1,0,0.1-0.1,0.1-0.2l0.1-1h0
						c0.5,0.6,1.4,1.2,2.3,1.2c0.5,0,1-0.1,1.4-0.4C-0.4,5.6,0,4.8,0,4.3V0z"/>
				</g>
				<g id="g167" transform="translate(247.7561,9.4342)">
					<path id="path169" class="st1" d="M0,0c0,0.7-0.1,1.2-0.4,1.5C-0.7,1.7-1,1.9-1.2,1.9c-0.4,0-0.8-0.1-1.2-0.5
						C-2.9,0.8-3,0.1-3-0.6C-3-1.1-2.8-1.7-2.5-2c0.3-0.3,0.6-0.4,1-0.4C-0.4-2.5,0-1.1,0,0 M1.5-7.2c0,1-0.7,1.7-2.4,1.6l-1.6-0.1
						C-3-5.8-3.8-6.4-3.8-7.3c0-0.4,0.3-0.9,0.6-1.2C-2.6-8.8-2-8.9-0.8-8.9C-0.2-8.9,1.6-8.5,1.5-7.2 M-3.9-8.9
						c-0.6,0.4-0.8,0.8-0.8,1.4c0,0.9,0.9,1.7,1.7,2v0.1c-0.7,0.2-1.1,0.7-1.1,1.2c0,0.8,0.9,1.4,1.5,1.6v0
						c-0.6,0.3-1.5,1.1-1.5,2.6c0,1.1,1,2.4,2.8,2.4c1.3,0,1.9-0.8,2.1-1C1.2,1.7,1.7,2,2.3,2c0.5,0,0.8-0.4,0.8-0.7
						c0-0.3-0.3-0.6-0.6-0.6C2.1,0.7,2,0.8,1.8,1C1.7,1,1.6,1.1,1.5,1.1C1.4,1.1,1.2,1.1,1,1c0.1-0.3,0.2-0.7,0.2-1.3
						c0-0.7-0.2-1.3-0.6-1.8C0.2-2.6-0.8-2.9-1.3-2.9c-0.4,0-0.6,0-0.8,0.1C-2.5-3-3-3.3-3-3.8c0-0.7,0.8-0.6,1.9-0.6
						C0.2-4.3,1.1-4.4,1.7-5c0.7-0.5,0.8-1.2,0.8-1.6c0-0.8-0.3-1.4-1.1-2.1C1-9,0-9.4-1.4-9.4C-2.2-9.4-3.1-9.4-3.9-8.9"/>
				</g>
			</g>
		</g>
	</g>
</g>
</svg>
